<?xml version="1.0" standalone="no"?>
<!DOCTYPE svg PUBLIC "-//W3C//DTD SVG 20010904//EN"
 "http://www.w3.org/TR/2001/REC-SVG-20010904/DTD/svg10.dtd">
<svg version="1.0" xmlns="http://www.w3.org/2000/svg"
 width="600.000000pt" height="600.000000pt" viewBox="0 0 600.000000 600.000000"
 preserveAspectRatio="xMidYMid meet">

<g transform="translate(0.000000,600.000000) scale(0.100000,-0.100000)"
fill="#000000" stroke="none">
<path d="M930 5376 c-155 -33 -280 -164 -309 -321 -15 -83 -15 -4027 0 -4110
30 -162 162 -295 323 -324 84 -15 4028 -15 4112 0 161 29 293 162 323 324 15
83 15 4027 0 4111 -29 161 -162 293 -324 323 -88 16 -4050 14 -4125 -3z m2995
-950 c838 -279 908 -305 880 -315 -65 -24 -60 19 -63 -535 l-2 -506 55 -110
c30 -60 55 -117 55 -126 0 -18 -150 -284 -160 -284 -6 0 -114 170 -148 233
-26 49 -23 71 18 137 15 25 42 72 59 105 l31 60 0 483 c0 409 -2 482 -14 482
-8 0 -99 -29 -203 -65 -173 -61 -991 -328 -1300 -425 l-133 -41 -501 156
c-459 143 -1209 391 -1304 430 -35 15 -37 18 -20 27 40 23 1782 598 1810 598
17 0 440 -137 940 -304z m-1347 -895 l423 -132 424 135 c233 75 430 136 437
136 19 0 74 -226 64 -263 -14 -58 -111 -142 -281 -244 -264 -159 -554 -276
-681 -276 -176 1 -588 212 -805 412 -42 39 -80 82 -83 96 -4 16 4 70 19 133
36 146 35 144 48 139 7 -2 202 -64 435 -136z m-390 -1503 c7 -7 12 -21 12 -33
0 -28 -19 -45 -50 -45 -31 0 -50 17 -50 45 0 28 19 45 50 45 14 0 31 -5 38
-12z m1650 0 c7 -7 12 -21 12 -33 0 -28 -19 -45 -50 -45 -31 0 -50 17 -50 45
0 28 19 45 50 45 14 0 31 -5 38 -12z m286 -33 c-32 -39 -41 -45 -75 -45 -22 0
-39 2 -39 5 0 3 12 23 26 45 25 38 30 40 76 40 l49 0 -37 -45z m-2417 14 c74
-28 113 -99 113 -209 0 -154 -78 -233 -215 -218 -87 10 -144 82 -152 193 -12
145 61 245 179 245 26 0 59 -5 75 -11z m1323 -59 c0 -36 3 -40 25 -40 21 0 25
-5 25 -30 0 -25 -4 -30 -25 -30 l-26 0 3 -97 3 -98 28 -3 c25 -3 28 -7 25 -35
-3 -31 -5 -32 -53 -35 -43 -2 -54 1 -75 23 -21 22 -24 36 -28 135 -4 99 -6
110 -23 110 -14 0 -19 7 -19 30 0 23 4 30 20 30 17 0 20 7 20 40 l0 40 50 0
50 0 0 -40z m-1060 -50 c0 -7 6 -7 19 0 11 5 33 10 50 10 29 0 31 -3 31 -35 0
-32 -3 -35 -28 -35 -15 0 -38 -7 -50 -16 -20 -14 -22 -23 -22 -125 l0 -109
-45 0 -45 0 0 160 0 160 45 0 c25 0 45 -5 45 -10z m230 -150 l0 -160 -50 0
-50 0 0 160 0 160 50 0 50 0 0 -160z m291 134 c30 -26 49 -75 49 -124 l0 -40
-100 0 c-55 0 -100 -3 -100 -8 0 -20 33 -51 61 -57 24 -5 38 -2 61 15 l30 22
23 -28 c16 -20 20 -33 14 -41 -19 -23 -78 -43 -126 -43 -92 0 -153 63 -153
157 0 79 32 140 85 164 35 15 132 5 156 -17z m179 16 c0 -7 6 -7 19 0 26 13
97 13 123 -1 35 -19 48 -70 48 -194 l0 -115 -45 0 -45 0 0 98 c0 53 -3 107 -6
120 -8 27 -44 38 -73 22 -19 -10 -21 -19 -21 -125 l0 -115 -45 0 -45 0 0 160
0 160 45 0 c25 0 45 -5 45 -10z m658 -4 c42 -22 51 -50 54 -184 l4 -123 -55 0
c-31 1 -79 -2 -107 -5 -45 -5 -54 -3 -82 21 -26 22 -32 34 -32 67 0 21 5 48
11 60 14 27 69 48 124 48 38 0 45 3 45 20 0 10 -9 24 -20 30 -22 12 -60 5 -60
-11 0 -5 -22 -9 -50 -9 -27 0 -50 2 -50 5 0 22 37 69 63 80 42 18 121 19 155
1z m322 -1 c32 -16 60 -61 60 -95 0 -17 -6 -20 -45 -20 -38 0 -45 3 -45 20 0
18 -26 40 -49 40 -6 0 -20 -9 -31 -20 -15 -15 -20 -33 -20 -75 0 -42 5 -60 20
-75 11 -11 25 -20 31 -20 20 0 49 21 49 35 0 11 12 15 45 15 50 0 56 -10 30
-60 -20 -39 -63 -60 -122 -60 -94 0 -143 57 -143 165 0 72 20 119 62 145 40
24 116 27 158 5z m200 -145 l0 -160 -50 0 -50 0 0 160 0 160 50 0 50 0 0 -160z
m296 130 c40 -38 54 -73 54 -135 0 -101 -47 -156 -140 -163 -48 -4 -65 0 -93
17 -92 57 -94 232 -4 291 46 30 145 24 183 -10z m194 20 c0 -7 6 -7 19 0 26
13 97 13 123 -1 35 -19 48 -70 48 -194 l0 -115 -45 0 -45 0 0 98 c0 53 -3 107
-6 120 -8 27 -44 38 -73 22 -19 -10 -21 -19 -21 -125 l0 -115 -45 0 -45 0 0
160 0 160 45 0 c25 0 45 -5 45 -10z m-1052 -592 c7 -7 12 -21 12 -33 0 -28
-19 -45 -50 -45 -31 0 -50 17 -50 45 0 28 19 45 50 45 14 0 31 -5 38 -12z
m1172 -213 l0 -225 -50 0 -50 0 0 225 0 225 50 0 50 0 0 -225z m-2810 49 l46
-156 46 154 45 153 52 3 c28 2 51 0 51 -4 0 -3 -32 -100 -72 -215 l-72 -209
-51 0 -50 0 -69 203 c-38 111 -71 208 -74 215 -3 9 11 12 49 12 l54 0 45 -156z
m496 15 c40 -37 54 -73 54 -135 0 -105 -56 -164 -155 -164 -94 0 -145 59 -145
167 0 111 57 167 162 160 44 -2 64 -9 84 -28z m314 16 c32 -16 60 -61 60 -95
0 -17 -6 -20 -45 -20 -38 0 -45 3 -45 20 0 18 -26 40 -49 40 -6 0 -20 -9 -31
-20 -15 -15 -20 -33 -20 -75 0 -42 5 -60 20 -75 11 -11 25 -20 31 -20 20 0 49
21 49 35 0 11 12 15 45 15 50 0 56 -10 30 -60 -20 -39 -63 -60 -122 -60 -94 0
-143 57 -143 165 0 72 20 119 62 145 40 24 116 27 158 5z m318 1 c42 -22 51
-50 54 -184 l4 -123 -55 0 c-31 1 -79 -2 -107 -5 -45 -5 -54 -3 -82 21 -26 22
-32 34 -32 67 0 21 5 48 11 60 14 27 69 48 124 48 38 0 45 3 45 20 0 10 -9 24
-20 30 -22 12 -60 5 -60 -11 0 -5 -22 -9 -50 -9 -27 0 -50 2 -50 5 0 22 37 69
63 80 42 18 121 19 155 1z m322 -1 c32 -16 60 -61 60 -95 0 -17 -6 -20 -45
-20 -38 0 -45 3 -45 20 0 18 -26 40 -49 40 -6 0 -20 -9 -31 -20 -15 -15 -20
-33 -20 -75 0 -42 5 -60 20 -75 11 -11 25 -20 31 -20 20 0 49 21 49 35 0 11
12 15 45 15 50 0 56 -10 30 -60 -20 -39 -63 -60 -122 -60 -94 0 -143 57 -143
165 0 72 20 119 62 145 40 24 116 27 158 5z m200 -145 l0 -160 -50 0 -50 0 0
160 0 160 50 0 50 0 0 -160z m296 129 c40 -37 54 -73 54 -135 0 -105 -56 -164
-155 -164 -94 0 -145 59 -145 167 0 111 57 167 162 160 44 -2 64 -9 84 -28z
m194 21 c0 -7 6 -7 19 0 26 13 97 13 123 -1 35 -19 48 -70 48 -194 l0 -115
-45 0 -45 0 0 98 c0 53 -3 107 -6 120 -8 27 -44 38 -73 22 -19 -10 -21 -19
-21 -125 l0 -115 -45 0 -45 0 0 160 0 160 45 0 c25 0 45 -5 45 -10z m448 -4
c42 -22 51 -50 54 -184 l4 -123 -55 0 c-31 1 -79 -2 -107 -5 -45 -5 -54 -3
-82 21 -26 22 -32 34 -32 67 0 21 5 48 11 60 14 27 69 48 124 48 38 0 45 3 45
20 0 10 -9 24 -20 30 -22 12 -60 5 -60 -11 0 -5 -22 -9 -50 -9 -27 0 -50 2
-50 5 0 22 37 69 63 80 42 18 121 19 155 1z"/>
<path d="M4656 2901 l-29 -59 29 -51 c16 -28 31 -51 34 -51 3 0 17 23 32 51
l27 51 -30 59 c-16 33 -31 59 -32 59 -2 0 -16 -26 -31 -59z"/>
<path d="M1602 1940 c-31 -13 -52 -68 -52 -138 0 -77 15 -119 51 -137 40 -21
57 -19 90 14 28 28 29 33 29 121 0 88 -1 93 -29 121 -31 30 -50 34 -89 19z"/>
<path d="M2374 1832 c-6 -4 -16 -17 -23 -29 -11 -23 -11 -23 44 -23 41 0 55 4
55 14 0 33 -48 57 -76 38z"/>
<path d="M3223 1710 c-28 -11 -30 -46 -4 -55 32 -10 71 11 71 40 0 27 -23 32
-67 15z"/>
<path d="M4010 1820 c-15 -15 -20 -33 -20 -75 0 -42 5 -60 20 -75 26 -26 46
-25 75 5 19 18 25 35 25 70 0 35 -6 52 -25 70 -29 30 -49 31 -75 5z"/>
<path d="M2010 1098 c-44 -48 -16 -168 40 -168 56 0 82 119 35 165 -30 31 -48
31 -75 3z"/>
<path d="M2673 990 c-28 -11 -30 -46 -4 -55 32 -10 71 11 71 40 0 27 -23 32
-67 15z"/>
<path d="M3460 1098 c-44 -48 -16 -168 40 -168 56 0 82 119 35 165 -30 31 -48
31 -75 3z"/>
<path d="M4133 990 c-28 -11 -30 -46 -4 -55 32 -10 71 11 71 40 0 27 -23 32
-67 15z"/>
</g>
</svg>
